<mxfile host="app.diagrams.net" modified="2021-03-26T04:00:54.985Z" agent="5.0 (Macintosh; Intel Mac OS X 10_15_4) AppleWebKit/537.36 (KHTML, like Gecko) Chrome/88.0.4324.182 Safari/537.36" etag="yybUHTj6NAoxL_KG2Ult" version="14.4.9" type="github">
  <diagram id="TFAPqa1A-4MQkMpAfLPp" name="Page-1">
    <mxGraphModel dx="1426" dy="794" grid="1" gridSize="10" guides="1" tooltips="1" connect="1" arrows="1" fold="1" page="1" pageScale="1" pageWidth="1654" pageHeight="1169" math="0" shadow="0">
      <root>
        <mxCell id="0" />
        <mxCell id="1" parent="0" />
        <mxCell id="1IueH6XkdzsRCoE7BbBE-20" style="edgeStyle=orthogonalEdgeStyle;rounded=0;orthogonalLoop=1;jettySize=auto;html=1;exitX=0.5;exitY=1;exitDx=0;exitDy=0;entryX=0.5;entryY=0;entryDx=0;entryDy=0;" edge="1" parent="1" source="1IueH6XkdzsRCoE7BbBE-1" target="1IueH6XkdzsRCoE7BbBE-2">
          <mxGeometry relative="1" as="geometry" />
        </mxCell>
        <mxCell id="1IueH6XkdzsRCoE7BbBE-1" value="开始" style="rounded=1;whiteSpace=wrap;html=1;" vertex="1" parent="1">
          <mxGeometry x="455" y="50" width="90" height="30" as="geometry" />
        </mxCell>
        <mxCell id="1IueH6XkdzsRCoE7BbBE-21" style="edgeStyle=orthogonalEdgeStyle;rounded=0;orthogonalLoop=1;jettySize=auto;html=1;exitX=0.5;exitY=1;exitDx=0;exitDy=0;" edge="1" parent="1" source="1IueH6XkdzsRCoE7BbBE-2" target="1IueH6XkdzsRCoE7BbBE-3">
          <mxGeometry relative="1" as="geometry" />
        </mxCell>
        <mxCell id="1IueH6XkdzsRCoE7BbBE-2" value="执行 promise 方法" style="rounded=1;whiteSpace=wrap;html=1;" vertex="1" parent="1">
          <mxGeometry x="445" y="110" width="110" height="30" as="geometry" />
        </mxCell>
        <mxCell id="1IueH6XkdzsRCoE7BbBE-11" style="edgeStyle=orthogonalEdgeStyle;rounded=0;orthogonalLoop=1;jettySize=auto;html=1;exitX=0.5;exitY=1;exitDx=0;exitDy=0;entryX=0.5;entryY=0;entryDx=0;entryDy=0;" edge="1" parent="1" source="1IueH6XkdzsRCoE7BbBE-3" target="1IueH6XkdzsRCoE7BbBE-10">
          <mxGeometry relative="1" as="geometry">
            <mxPoint x="500" y="490" as="targetPoint" />
          </mxGeometry>
        </mxCell>
        <mxCell id="1IueH6XkdzsRCoE7BbBE-24" style="edgeStyle=orthogonalEdgeStyle;rounded=0;orthogonalLoop=1;jettySize=auto;html=1;exitX=0;exitY=0.5;exitDx=0;exitDy=0;entryX=1;entryY=0.5;entryDx=0;entryDy=0;" edge="1" parent="1" source="1IueH6XkdzsRCoE7BbBE-3" target="1IueH6XkdzsRCoE7BbBE-5">
          <mxGeometry relative="1" as="geometry" />
        </mxCell>
        <mxCell id="1IueH6XkdzsRCoE7BbBE-3" value="是否执行异常" style="rhombus;whiteSpace=wrap;html=1;" vertex="1" parent="1">
          <mxGeometry x="442.5" y="235" width="115" height="80" as="geometry" />
        </mxCell>
        <mxCell id="1IueH6XkdzsRCoE7BbBE-14" style="edgeStyle=orthogonalEdgeStyle;rounded=0;orthogonalLoop=1;jettySize=auto;html=1;exitX=0.5;exitY=1;exitDx=0;exitDy=0;entryX=0.5;entryY=0;entryDx=0;entryDy=0;" edge="1" parent="1" source="1IueH6XkdzsRCoE7BbBE-5" target="1IueH6XkdzsRCoE7BbBE-6">
          <mxGeometry relative="1" as="geometry" />
        </mxCell>
        <mxCell id="1IueH6XkdzsRCoE7BbBE-5" value="重试次数 +1" style="rounded=1;whiteSpace=wrap;html=1;" vertex="1" parent="1">
          <mxGeometry x="243" y="260" width="110" height="30" as="geometry" />
        </mxCell>
        <mxCell id="1IueH6XkdzsRCoE7BbBE-22" style="edgeStyle=orthogonalEdgeStyle;rounded=0;orthogonalLoop=1;jettySize=auto;html=1;exitX=0.5;exitY=1;exitDx=0;exitDy=0;entryX=0.5;entryY=0;entryDx=0;entryDy=0;" edge="1" parent="1" source="1IueH6XkdzsRCoE7BbBE-6" target="1IueH6XkdzsRCoE7BbBE-8">
          <mxGeometry relative="1" as="geometry" />
        </mxCell>
        <mxCell id="1IueH6XkdzsRCoE7BbBE-23" style="edgeStyle=orthogonalEdgeStyle;rounded=0;orthogonalLoop=1;jettySize=auto;html=1;exitX=0;exitY=0.5;exitDx=0;exitDy=0;entryX=0;entryY=0.5;entryDx=0;entryDy=0;" edge="1" parent="1" source="1IueH6XkdzsRCoE7BbBE-6" target="1IueH6XkdzsRCoE7BbBE-2">
          <mxGeometry relative="1" as="geometry">
            <Array as="points">
              <mxPoint x="190" y="400" />
              <mxPoint x="190" y="125" />
            </Array>
          </mxGeometry>
        </mxCell>
        <mxCell id="1IueH6XkdzsRCoE7BbBE-6" value="是否≥最大重试次数？" style="rhombus;whiteSpace=wrap;html=1;" vertex="1" parent="1">
          <mxGeometry x="240" y="360" width="115" height="80" as="geometry" />
        </mxCell>
        <mxCell id="1IueH6XkdzsRCoE7BbBE-8" value="抛出原错误" style="rounded=1;whiteSpace=wrap;html=1;" vertex="1" parent="1">
          <mxGeometry x="242.5" y="520" width="110" height="30" as="geometry" />
        </mxCell>
        <mxCell id="1IueH6XkdzsRCoE7BbBE-10" value="返回结果" style="rounded=1;whiteSpace=wrap;html=1;" vertex="1" parent="1">
          <mxGeometry x="445" y="520" width="110" height="30" as="geometry" />
        </mxCell>
        <mxCell id="1IueH6XkdzsRCoE7BbBE-25" value="Y" style="text;html=1;strokeColor=none;fillColor=none;align=center;verticalAlign=middle;whiteSpace=wrap;rounded=0;" vertex="1" parent="1">
          <mxGeometry x="403" y="250" width="40" height="20" as="geometry" />
        </mxCell>
        <mxCell id="1IueH6XkdzsRCoE7BbBE-26" value="Y" style="text;html=1;strokeColor=none;fillColor=none;align=center;verticalAlign=middle;whiteSpace=wrap;rounded=0;" vertex="1" parent="1">
          <mxGeometry x="300" y="440" width="40" height="20" as="geometry" />
        </mxCell>
        <mxCell id="1IueH6XkdzsRCoE7BbBE-27" value="N" style="text;html=1;strokeColor=none;fillColor=none;align=center;verticalAlign=middle;whiteSpace=wrap;rounded=0;" vertex="1" parent="1">
          <mxGeometry x="505" y="315" width="40" height="20" as="geometry" />
        </mxCell>
        <mxCell id="1IueH6XkdzsRCoE7BbBE-28" value="N" style="text;html=1;strokeColor=none;fillColor=none;align=center;verticalAlign=middle;whiteSpace=wrap;rounded=0;" vertex="1" parent="1">
          <mxGeometry x="200" y="380" width="40" height="20" as="geometry" />
        </mxCell>
      </root>
    </mxGraphModel>
  </diagram>
</mxfile>
